<?xml version="1.0" encoding="UTF-8" standalone="no"?>
<svg
   xmlns:dc="http://purl.org/dc/elements/1.1/"
   xmlns:cc="http://creativecommons.org/ns#"
   xmlns:rdf="http://www.w3.org/1999/02/22-rdf-syntax-ns#"
   xmlns:svg="http://www.w3.org/2000/svg"
   xmlns="http://www.w3.org/2000/svg"
   viewBox="0 0 377.70667 163.36"
   height="163.36"
   width="377.70667"
   xml:space="preserve"
   id="svg2"
   version="1.1"><metadata
     id="metadata8"><rdf:RDF><cc:Work
         rdf:about=""><dc:format>image/svg+xml</dc:format><dc:type
           rdf:resource="http://purl.org/dc/dcmitype/StillImage" /></cc:Work></rdf:RDF></metadata><defs
     id="defs6" /><g
     transform="matrix(1.3333333,0,0,-1.3333333,0,163.36)"
     id="g10"><g
       transform="scale(0.1)"
       id="g12"><path
         id="path14"
         style="fill:#ffffff;fill-opacity:1;fill-rule:nonzero;stroke:none"
         d="M 2551.05,1223.52 H 217.563 C 101.02,1223.51 6.60156,1129.16 6.55859,1012.7 V 211.328 C 6.60156,94.8789 101.02,0.53125 217.563,0.5 H 2551.05 v 1223.02" /><path
         id="path16"
         style="fill:#ffffff;fill-opacity:1;fill-rule:nonzero;stroke:none"
         d="M 1470.64,1134.91 H 211.379 C 144.547,1134.79 90.4766,1080.76 90.3477,1013.99 V 211.191 C 90.4766,144.441 144.547,90.3984 211.379,90.2695 H 1470.64 V 1134.91" /><path
         id="path18"
         style="fill:#193778;fill-opacity:1;fill-rule:nonzero;stroke:none"
         d="m 90.3477,211.191 v 802.799 c 0.1289,66.77 54.1993,120.8 121.0313,120.92 H 1470.64 V 90.2695 H 211.379 C 144.547,90.3984 90.4766,144.441 90.3477,211.191 Z M 2621.42,1225.19 H 211.379 C 94.625,1225.17 0.0429688,1130.68 0,1013.99 V 211.191 C 0.0429688,94.5391 94.625,0.0390625 211.379,0 H 2621.42 c 116.75,0.0390625 211.34,94.5391 211.38,211.191 v 802.799 c -0.04,116.69 -94.63,211.18 -211.38,211.2" /><path
         id="path20"
         style="fill:#ffffff;fill-opacity:1;fill-rule:nonzero;stroke:none"
         d="m 1571,342.512 h 105.72 v 166.093 h 1.18 c 19.98,-36.398 59.93,-49.875 96.93,-49.875 91.05,0 139.8,75.125 139.8,165.532 0,73.941 -46.37,154.359 -130.97,154.359 -48.17,0 -92.83,-19.375 -113.97,-62.219 h -1.18 v 55.18 H 1571 Z m 234.39,279.386 c 0,-48.722 -24.09,-82.171 -64.01,-82.171 -35.26,0 -64.66,33.449 -64.66,78.07 0,45.777 25.87,79.824 64.66,79.824 41.1,0 64.01,-35.199 64.01,-75.723" /><path
         id="path22"
         style="fill:#ffffff;fill-opacity:1;fill-rule:nonzero;stroke:none"
         d="m 2272.27,465.789 c -4.69,24.066 -5.89,48.109 -5.89,72.191 v 113.868 c 0,93.328 -67.54,126.773 -145.67,126.773 -45.25,0 -84.6,-6.433 -122.19,-21.723 l 1.74,-71.601 c 29.4,16.426 63.46,22.894 97.51,22.894 38.2,0 69.35,-11.152 69.93,-52.839 -13.51,2.367 -32.29,4.152 -49.33,4.152 -56.4,0 -158.02,-11.188 -158.02,-104.516 0,-66.343 54.04,-96.277 114.55,-96.277 43.47,0 72.84,17.051 96.91,55.187 h 1.15 c 0,-15.851 1.8,-31.718 2.37,-48.109 z m -213.25,96.816 c 0,29.36 28.19,40.504 64.03,40.504 15.87,0 31.14,-1.168 44.65,-1.754 0,-35.789 -25.24,-72.222 -65.22,-72.222 -24.66,0 -43.46,12.383 -43.46,33.472" /><path
         id="path24"
         style="fill:#ffffff;fill-opacity:1;fill-rule:nonzero;stroke:none"
         d="m 2319.76,342.512 c 21.75,-4.707 43.47,-7.063 65.8,-7.063 96.95,0 119.84,74.578 149.78,151.414 l 112.22,284.719 h -105.74 l -62.87,-199.559 h -1.17 l -65.8,199.559 H 2298.06 L 2421.95,458.73 c -7.59,-27 -27.57,-42.265 -53.38,-42.265 -14.73,0 -27.66,1.726 -41.73,6.465 l -7.08,-80.418" /><path
         id="path26"
         style="fill:#ed1c24;fill-opacity:1;fill-rule:nonzero;stroke:none"
         d="m 579.125,771.582 h -95.766 v -55.16 h -1.152 c -22.324,37.555 -58.754,62.199 -103.98,62.199 -95.145,0 -138.036,-68.074 -138.036,-159.066 0,-90.422 52.274,-153.766 136.289,-153.766 42.293,0 77.536,16.391 102.774,52.238 h 1.18 v -16.464 c 0,-59.875 -32.875,-88.625 -93.981,-88.625 -44.055,0 -71.07,9.386 -103.371,25.238 l -5.301,-83.363 c 24.68,-8.766 66.391,-19.364 116.903,-19.364 123.351,0 184.441,40.52 184.441,166.114 z M 349.453,621.332 c 0,41.656 20.563,76.289 59.918,76.289 47.57,0 67.555,-38.117 67.555,-72.176 0,-46.988 -29.973,-78.675 -67.555,-78.675 -31.719,0 -59.918,27.031 -59.918,74.562" /><path
         id="path28"
         style="fill:#ed1c24;fill-opacity:1;fill-rule:nonzero;stroke:none"
         d="m 652.086,465.789 h 105.73 v 305.793 h -105.73 z m 105.73,433.176 H 652.086 V 821.48 h 105.73 v 77.485" /><path
         id="path30"
         style="fill:#ed1c24;fill-opacity:1;fill-rule:nonzero;stroke:none"
         d="m 1052.23,775.129 c -10.58,1.734 -23.5,3.492 -35.82,3.492 -45.824,0 -72.265,-24.644 -90.476,-63.371 h -1.168 v 56.332 H 828.43 V 465.789 h 105.734 v 129.106 c 0,59.89 27.617,95.691 76.956,95.691 12.32,0 24.08,0 35.81,-3.508 l 5.3,88.051" /><path
         id="path32"
         style="fill:#ed1c24;fill-opacity:1;fill-rule:nonzero;stroke:none"
         d="m 1234.29,458.73 c 101.01,0 177.97,58.68 177.97,159.637 0,101.574 -76.96,160.254 -177.97,160.254 -101.03,0 -177.99,-58.68 -177.99,-160.254 0,-100.957 76.96,-159.637 177.99,-159.637 m 0,73.958 c -48.76,0 -68.73,40.488 -68.73,85.679 0,45.797 19.97,86.297 68.73,86.297 48.75,0 68.73,-40.5 68.73,-86.297 0,-45.191 -19.98,-85.679 -68.73,-85.679" /></g></g></svg>